<svg xmlns="http://www.w3.org/2000/svg" width="178.15" height="65.334" viewBox="0 0 178.15 65.334"><g transform="translate(-385.164 -329.18)"><path d="M659.36,456.3V417.75c.88-.215,133.733-.293,135.662-.078v38.561C794.179,456.44,661.328,456.515,659.36,456.3Zm4.669-11.7a7.542,7.542,0,0,0-.586,3.153,3.015,3.015,0,0,0,2.809,3.271,12.412,12.412,0,0,0,2.25.175c9.854-.036,19.709-.1,29.563-.126,2.575-.008,5.151.105,7.725.118a13.381,13.381,0,0,0,1.745-.27,2.147,2.147,0,0,1,.879,0c1.675.519,3.363.2,5.135.263-.025-2.862.18-5.589-.439-8.281h-2.546v5.628l-1.328-.088a28.325,28.325,0,0,0,.093-4.759,8.17,8.17,0,0,0-2.952.065c0,.418,0,.807,0,1.2,0,.755.012,1.511-.014,2.264a1.178,1.178,0,0,1-1.2,1.289c-.226-1.6.071-3.228-.18-4.835a7.881,7.881,0,0,0-2.9.1v4.757c-1.094,0-2.078.014-3.06,0-.858-.016-1-.181-1.057-1.061-.048-.75-.1-1.5-.174-2.25a2.62,2.62,0,0,0-2.324-2.366,10.442,10.442,0,0,0-4.836.153,1.231,1.231,0,0,0-1.023,1,8.9,8.9,0,0,0-.315,4.464h-4.937v-5.578h-2.933v5.561h-4.932v-5.557h-2.958V448.5c-2.033,0-3.973.051-5.907-.022-.992-.037-1.452-.669-1.435-1.7.012-.665.082-1.328.132-2.047-.6-.067-1.142-.136-1.689-.183A4.775,4.775,0,0,0,664.029,444.595Zm119.148-4.858v8.726c-.28.029-.432.06-.584.06-1.35,0-2.7,0-4.127,0a8.956,8.956,0,0,0,1.61-1.954,9.262,9.262,0,0,0,.356-2.495,8.555,8.555,0,0,0-3.3-1.319,8.7,8.7,0,0,0-5.992.91c-.226.113-.535.349-.552.55-.091,1.1-.209,2.241.731,3.116.384.358.761.725,1.252,1.193-2.187-.008-4.193.025-6.294-.02v-5.639h-2.847c-.02.446-.053.832-.053,1.22q-.007,3.514,0,7.029c0,.812-.093,1.542-1.094,1.59v2.532a3.608,3.608,0,0,0,2.625-.339c1.193-.9,1.244-2.3,1.474-3.7.483,0,.913,0,1.342,0,1.709,0,3.42.054,5.124-.04.855-.048,1.7-.536,2.543-.533.886,0,1.768.507,2.658.532,2.62.073,5.244.019,7.866.008.065,0,.132-.071.25-.141v-11.29ZM745.7,442.881a23.359,23.359,0,0,0-6.948-.06,2.7,2.7,0,0,0-2.382,2.45,9.7,9.7,0,0,0,.022,3.2A2.754,2.754,0,0,0,738.838,451a9.914,9.914,0,0,0,1.889.194q9.425.021,18.85,0c.305,0,.611-.051,1-.085-.009-2.786.023-5.5-.017-8.225h-2.918v5.5a16.318,16.318,0,0,1-4.94-.068v-5.436h-2.9c-.094,1.911.04,3.759-.081,5.592H745.7C745.7,446.6,745.7,444.788,745.7,442.881Zm-21.074,5.591v-8.747H721.66v8.713h-1.52c-.077-2.213.04-4.347-.071-6.548a17.111,17.111,0,0,0-2.96.094v6.5l-1.925.091v2.56h15.53a79.116,79.116,0,0,0-.082-11.4h-2.82v8.741C726.709,448.472,725.737,448.472,724.628,448.472Zm28.253-28.035a126.177,126.177,0,0,0,.059,14.721h2.82v-9.067l.178-.017c.522,1.043,1.046,2.086,1.675,3.342.654-1.255,1.2-2.293,1.737-3.332l.153.073v2.977c0,1.032-.025,2.066.008,3.1a11.872,11.872,0,0,0,.122,2.912h2.732c.222-1.5.163-13.807-.071-14.705h-2.74c-.612,1.289-1.216,2.561-1.926,4.054-.719-1.492-1.331-2.761-1.954-4.055Zm-33.579-.006c-.242,1.568-.178,13.876.054,14.707H722.1V427.5l.17-.033,2.659,7.68h3.077V420.471h-2.864v7.785l-.149.006q-1.341-3.921-2.678-7.833C721.255,420.431,720.311,420.431,719.3,420.431Zm60.023.011v7.814l-.147.006c-.894-2.614-1.787-5.228-2.662-7.788h-3.042c-.236,1.556-.17,13.841.065,14.664h2.749V427.5l.169-.033c.89,2.569,1.779,5.137,2.658,7.678h3.025c.214-1.317.178-13.76-.043-14.708Zm-78.617,7.281a1.125,1.125,0,0,1,.141-.215c1.52-1.374,1.522-3.1.916-4.819s-2.138-2.23-3.823-2.293c-1.071-.04-2.145-.014-3.217,0a6.027,6.027,0,0,0-.767.1c-.22,1.971-.136,13.813.115,14.713,1.56,0,3.15.1,4.723-.023a3.7,3.7,0,0,0,3.505-3.8A4.213,4.213,0,0,0,700.707,427.723Zm-20.51,1.061a4.747,4.747,0,0,0,1.794-4.529,3.911,3.911,0,0,0-3.2-3.789c-1.68-.163-3.387-.036-5.132-.036v14.73h2.895v-5.826c.855.014.874.008,1.015.468.208.682.383,1.374.579,2.061.313,1.1.632,2.191.955,3.307a10.376,10.376,0,0,0,3.057-.09C681.5,432.959,680.862,430.921,680.2,428.784Zm-7.966,6.373c-1.1-4.973-2.052-9.877-3.186-14.715h-3.313c-1.052,4.889-2.1,9.745-3.166,14.705h2.972c.175-.775.347-1.528.507-2.236h2.7c.16.792.305,1.517.451,2.247Zm20.527,0c-1.1-4.973-2.052-9.877-3.186-14.715h-3.313c-1.052,4.889-2.1,9.745-3.166,14.705h2.972c.175-.775.347-1.528.507-2.236h2.7c.16.792.305,1.517.453,2.247Zm18.373.006c.178-.81.336-1.534.491-2.234h2.719c.153.786.29,1.478.432,2.21h3.04c-1.061-4.962-2.1-9.824-3.143-14.684h-3.358c-1.055,4.908-2.1,9.761-3.161,14.709Zm30.948-10.241a3.883,3.883,0,0,0-1.145-3.581,4.388,4.388,0,0,0-4.791-.747,3.658,3.658,0,0,0-2.4,3.753c0,2.306,0,4.61.008,6.916a4.54,4.54,0,0,0,.133,1.178,3.746,3.746,0,0,0,3.409,2.884,4.02,4.02,0,0,0,4.161-1.728,3.523,3.523,0,0,0,.586-2.878h-2.826c-.073.462-.1.857-.2,1.237a1.084,1.084,0,0,1-1.065.807,1.108,1.108,0,0,1-1.094-.906,5.387,5.387,0,0,1-.057-.95q-.007-3.1,0-6.2a5.316,5.316,0,0,1,.036-.832,1.113,1.113,0,0,1,2.208-.105c.09.373.141.755.212,1.151C740.2,424.923,741.066,424.923,742.079,424.923Zm27.957,4.244v-2.585h-2.7v-3.628h4.579v-2.5h-7.563v14.7h7.571v-2.52h-4.5a7.714,7.714,0,0,1,.06-3.469C768.276,429.167,769.1,429.167,770.037,429.167ZM743.8,435.125a43.091,43.091,0,0,0,7.567-.082v-2.357c-1.567-.143-3.068.065-4.56-.13v-3.392h2.679a5.113,5.113,0,0,0-.1-2.626H746.77a29.994,29.994,0,0,1,.019-3.507c1.626-.15,3.13.059,4.576-.13v-2.428a41.425,41.425,0,0,0-7.56.11Zm45.759.028c0-2.078-.006-4.057,0-6.036.008-2.01-.032-4.023.029-6.076l2.806-.147v-2.428h-8.665v2.507h2.783v12.18Zm-82.79,0c.228-1.925.144-13.845-.093-14.7h-2.72v14.7Zm84.689,16V439.734h-2.984c.036,3.848-.05,7.621.053,11.422ZM719.944,436.81a2.119,2.119,0,0,0-2.642-.076c-.748.657-.8,1.421-.17,2.826-.648.251-.5.651-.152,1.17l3.765-.761-.378-1.184-1.815.417a2.159,2.159,0,0,1-.239-.762c.091-.891.919-.491,1.415-.707C719.8,437.408,719.874,437.1,719.944,436.81Zm-38.322,4.45h2.568a11.27,11.27,0,0,0-.133-2.72c-.445,0-.837-.009-1.227,0s-.766.042-1.207.068C681.621,439.531,681.621,440.346,681.621,441.26ZM757.9,455.155h2.529V452.62H757.9ZM669.722,442.8v-2.518H667.74V442.8Zm.845-.033H672.6V440.31h-2.031Zm68.271-1.515h2.052v-2.472h-2.052v2.472Zm4.928.034a7.109,7.109,0,0,0-.06-2.475H741.8v2.475Zm5.086,13.7h1.977V452.5h-1.977Zm4.842-2.472h-1.982V455h1.982Z" transform="translate(-231.708 -74.672)" fill="#fff"/><path d="M434.23,329.18a3.631,3.631,0,0,1,1.564,2.255c.256.951.346,1.945.542,2.913a6.005,6.005,0,0,0,.459,1.576c.386.745,1.044.795,1.657.2.169-.164.263-.417.448-.552a4.16,4.16,0,0,1,1.195-.721c1.034-.3,1.656.1,1.7,1.185a35.155,35.155,0,0,1-.113,3.679c-.087,1.424-.228,2.845-.333,4.268a3.926,3.926,0,0,0,.029.832,1.836,1.836,0,0,0,3.138,1.249,11.152,11.152,0,0,0,1.241-1.28,1.813,1.813,0,0,1,1.331-.682,2.057,2.057,0,0,1,2.131,1.551A6.243,6.243,0,0,1,449,349.85c-.457,1.264-1.046,2.482-1.56,3.728-.257.621-.487,1.255-.713,1.889a3.18,3.18,0,0,0,.55,2.926.964.964,0,0,0,1.337.422c.4-.157.767-.422,1.167-.59a10.941,10.941,0,0,1,1.884-.7,1.462,1.462,0,0,1,1.853,1.218,5.152,5.152,0,0,1-.127,2.816,11.39,11.39,0,0,1-3.3,5.816,7.963,7.963,0,0,0-1.26,1.422c-.666.981-.322,1.723.854,1.8a23.86,23.86,0,0,0,2.617-.091c.156-.008.311-.077.468-.084.731-.026,1.469.006,1.881.733a1.845,1.845,0,0,1-.109,2.137,14.32,14.32,0,0,1-3.748,3.443c-1.543.964-3.033,2.025-4.478,3.13a3.167,3.167,0,0,0-.964,1.466c-.521,1.574-1.006,3.169-1.376,4.785a46.39,46.39,0,0,1-2.05,6.7c-.073.184-.143.37-.231.549-.7,1.4-1.348,1.534-2.4.406-.6-.638-1.237-1.235-1.852-1.858a2.554,2.554,0,0,1-.792-2.154,6.975,6.975,0,0,1,.967-3.147c.513-.8,1.01-1.615,1.5-2.433a19.677,19.677,0,0,0,2.053-5.921,52.276,52.276,0,0,0,1.164-13.949,41.239,41.239,0,0,0-2.8-13.794c-.36-.879-.831-1.712-1.227-2.575-1.291-2.809-2.609-5.608-3.84-8.444a17.18,17.18,0,0,1-1.362-7.069,8.885,8.885,0,0,1,.477-2.3A3.986,3.986,0,0,1,434.23,329.18Z" transform="translate(-40.52)" fill="#fff"/><path d="M425.394,524.683a15.181,15.181,0,0,1-6.125-1.413c-.482-.256-.913-.609-1.371-.911a1.348,1.348,0,0,1-.522-1.576c.561-2.3,2.09-3.307,4.365-2.783a8.81,8.81,0,0,1,3.462,1.393,4.908,4.908,0,0,1,2.05,4.052c.014,1.03-.189,1.207-1.263,1.238C425.791,524.688,425.592,524.683,425.394,524.683Z" transform="translate(-27.167 -159.446)" fill="#fff"/><path d="M408.188,461.973a15.462,15.462,0,0,1-6.6-1.629c-.9-.521-1.632-1.088-1.376-2.331a3.267,3.267,0,0,1,1.988-2.6,4.028,4.028,0,0,1,2.445.006c2.372.48,4.345,1.492,5.08,4.034a5.415,5.415,0,0,1,.226,1.274c.039.911-.265,1.21-1.165,1.243C408.585,461.979,408.387,461.973,408.188,461.973Z" transform="translate(-12.67 -106.511)" fill="#fff"/><path d="M433.419,586.659a5.573,5.573,0,0,1,0,.66c-.077.686-.42,1.027-1.109.9a15.336,15.336,0,0,1-2.5-.71,9.529,9.529,0,0,1-4.075-2.571,1.488,1.488,0,0,1-.268-2.042,2.74,2.74,0,0,1,3.663-1.464,7.605,7.605,0,0,1,2.758,1.588A4.446,4.446,0,0,1,433.419,586.659Z" transform="translate(-33.814 -212.98)" fill="#fff"/><path d="M392.212,400.731a13.24,13.24,0,0,1-5.792-1.441c-.587-.356-1.286-.651-1.255-1.557a2.861,2.861,0,0,1,1.13-2.36,2.71,2.71,0,0,1,1.3-.463,6.6,6.6,0,0,1,3.848.922,4.9,4.9,0,0,1,2.383,3.758c.113.677-.3,1.094-1.023,1.14C392.609,400.742,392.41,400.731,392.212,400.731Z" transform="translate(0 -55.525)" fill="#fff"/><path d="M872.855,599.805h-2.822a5.753,5.753,0,0,1-.1-2.991,4.73,4.73,0,0,1,.909-.189c1.764-.023,1.984.423,2.013,1.867C872.862,598.883,872.855,599.274,872.855,599.805Z" transform="translate(-409.526 -226.002)" fill="#fff"/><path d="M1400.018,596.64a4.556,4.556,0,0,1-2.028,1.9,3.62,3.62,0,0,1-1.949-1.926A5.991,5.991,0,0,1,1400.018,596.64Z" transform="translate(-854.234 -225.714)" fill="#fff"/><path d="M1178.24,599.694c-.752,0-1.46.051-2.157-.014-.792-.073-1.1-.431-1.171-1.232a5.84,5.84,0,0,1,.008-.947.858.858,0,0,1,.7-.852,4.5,4.5,0,0,1,2.625.023Z" transform="translate(-667.357 -225.866)" fill="#fff"/><path d="M901.3,490.127c.9-.125,1.67-.186,2.111.629a2.454,2.454,0,0,1,.006,2.482c-.454.795-1.226.711-2.112.578C901.255,492.574,901.257,491.345,901.3,490.127Z" transform="translate(-436.13 -135.944)" fill="#fff"/><path d="M901.3,452.764c.851-.174,1.553-.172,1.985.563a2.223,2.223,0,0,1,.017,2.259c-.4.759-1.13.747-2.008.615C901.246,455.065,901.241,453.916,901.3,452.764Z" transform="translate(-436.12 -104.354)" fill="#fff"/><path d="M770.832,452.681c.846-.174,1.608-.2,2.059.59a2.391,2.391,0,0,1-.011,2.5c-.459.772-1.227.741-2.05.589C770.832,455.12,770.832,453.911,770.832,452.681Z" transform="translate(-325.905 -104.278)" fill="#fff"/><path d="M706.291,469.28c.259,1.562.516,3.122.789,4.767h-1.9c.3-1.615.584-3.183.872-4.751Z" transform="translate(-270.428 -118.391)" fill="#fff"/><path d="M839.01,469.29c.259,1.548.519,3.1.787,4.7a4.778,4.778,0,0,1-1.847.119A21.919,21.919,0,0,1,839.01,469.29Z" transform="translate(-382.624 -118.399)" fill="#fff"/><path d="M1001.194,473.985H999.28c.311-1.652.607-3.218.9-4.785l.22.016C1000.664,470.788,1000.924,472.358,1001.194,473.985Z" transform="translate(-518.955 -118.323)" fill="#fff"/></g></svg>