<svg id="Layer_1" data-name="Layer 1" xmlns="http://www.w3.org/2000/svg" viewBox="0 0 500.12 146.01"><defs><style>.cls-1{fill:#023f86;}.cls-2{fill:#007ec3;}</style></defs><title>Tarmac_logo_500</title><path class="cls-1" d="M207,136.49H203.1l-2.12-5h-9.89l-2.15,5h-3.76l9.2-21.05h3.41Zm-11-16.66-3.58,8.36h7.2Z" transform="translate(0 0.19)"/><path class="cls-1" d="M232.05,129.92c-1.63,1.49-3,2.35-5.25,2.35-3.27,0-5.74-2.68-5.74-6.23V126c0-3.52,2.47-6.18,5.74-6.18a7.34,7.34,0,0,1,5.1,2.26l.16.14,3.13-3.61-.14-.13a10.88,10.88,0,0,0-8.22-3.22A10.61,10.61,0,0,0,215.95,126v.06a10.49,10.49,0,0,0,10.71,10.74,10.63,10.63,0,0,0,8.55-3.73l.13-.14-3.15-3.18Z" transform="translate(0 0.19)"/><path class="cls-1" d="M257,122.61v-.06c0-4.36-3-7-7.93-7h-9.57v20.9h4.92v-6.56h3.23l4.33,6.46.06.09h5.77l-5.08-7.42A6.56,6.56,0,0,0,257,122.61Zm-12.59-2.55h4.27c2.15,0,3.34,1,3.34,2.72v.06c0,1.66-1.24,2.69-3.25,2.69h-4.36Z" transform="translate(0 0.19)"/><polygon class="cls-1" points="274.47 115.78 274.47 123.89 266.57 123.89 266.57 115.78 261.65 115.78 261.65 136.68 266.57 136.68 266.57 128.45 274.47 128.45 274.47 136.68 279.39 136.68 279.39 115.78 274.47 115.78"/><path class="cls-1" d="M301,136.84a10.81,10.81,0,0,1,.15-21.62,10.9,10.9,0,0,1,8.18,3.26L307,121.19a8.31,8.31,0,0,0-5.85-2.6c-4,0-6.9,3.28-6.9,7.4s2.9,7.47,6.9,7.47c2.57,0,4.21-1,6-2.72l2.36,2.39A10.79,10.79,0,0,1,301,136.84Z" transform="translate(0 0.19)"/><path class="cls-1" d="M323.36,136.84a10.81,10.81,0,1,1,11-10.84A10.62,10.62,0,0,1,323.36,136.84Zm0-18.25a7.07,7.07,0,0,0-7,7.4,7.17,7.17,0,0,0,7.11,7.47,7.07,7.07,0,0,0,7-7.41A7.17,7.17,0,0,0,323.36,118.6Z" transform="translate(0 0.19)"/><path class="cls-1" d="M349,131.35h-.12l-6.54-9.8v14.93h-3.61V115.58h3.91l6.36,9.89,6.36-9.89h3.91v20.91h-3.67v-15Z" transform="translate(0 0.19)"/><path class="cls-1" d="M372.53,129.77h-4.15v6.72H364.7V115.58h8.24c4.87,0,7.94,2.75,7.94,7C380.89,127.32,377.13,129.77,372.53,129.77Zm.12-10.84h-4.27v7.53h4.27c2.78,0,4.51-1.53,4.51-3.77C377.16,120.21,375.4,118.92,372.65,118.92Z" transform="translate(0 0.19)"/><path class="cls-1" d="M402.43,136.49h-3.88l-2.12-5h-9.89l-2.15,5h-3.76l9.2-21.05h3.41Zm-11-16.66-3.58,8.36h7.2Z" transform="translate(0 0.19)"/><path class="cls-1" d="M420.63,115.58h3.61v20.91h-3.08l-11.53-14.87v14.87H406V115.58h3.4L420.63,130Z" transform="translate(0 0.19)"/><path class="cls-1" d="M439.48,136.49h-3.7v-8.24l-8.3-12.66h4.33l5.85,9.26,5.91-9.26h4.21l-8.3,12.58Z" transform="translate(0 0.19)"/><path class="cls-1" d="M190.09,47.89H175.3v-11h41.41v11H202.15v43.6H190.09Z" transform="translate(0 0.19)"/><path class="cls-1" d="M237.53,36.93h10.73L270.8,91.49H258l-3.68-9.16H231.51l-3.68,9.16H215ZM250.84,72.7l-7.91-19.8-8,19.8Z" transform="translate(0 0.19)"/><path class="cls-1" d="M277.31,36.93h22.86c10.18,0,18.55,7.83,18.55,18A16.51,16.51,0,0,1,309,70.43l13.31,21.06H308.7L297.35,73.33h-8.06V91.49h-12Zm21.53,25.75c4.7,0,7.83-3,7.83-7.59,0-4.23-3-7.2-6.81-7.2H289.29V62.68Z" transform="translate(0 0.19)"/><path class="cls-1" d="M328.67,36.93h10.1l18.71,27.95,18.71-27.95h10.1V91.49H374.93V58.22L357.48,84.05,339.94,58.22V91.49H328.67Z" transform="translate(0 0.19)"/><path class="cls-1" d="M415.33,36.93h10.73L448.6,91.49H435.77l-3.68-9.16H409.31l-3.68,9.16H392.79ZM428.64,72.7l-7.91-19.8-8,19.8Z" transform="translate(0 0.19)"/><path class="cls-1" d="M478,36.06A29,29,0,0,1,500,46.24l-8.22,7A18.52,18.52,0,0,0,478,47a17.18,17.18,0,1,0,0,34.37,18.48,18.48,0,0,0,13.93-6.26l8.22,7A28.93,28.93,0,0,1,478,92.35c-16.2,0-29.36-11.82-29.36-28.1S461.76,36.06,478,36.06Z" transform="translate(0 0.19)"/><path class="cls-2" d="M73-.19a73,73,0,1,0,73,73,73,73,0,0,0-73-73m0,115a42,42,0,1,1,42-42,42,42,0,0,1-42,42" transform="translate(0 0.19)"/></svg>